<?xml version="1.0" encoding="UTF-8" standalone="no"?>
<!-- Creator: CorelDRAW X7 -->

<svg
   xmlns:dc="http://purl.org/dc/elements/1.1/"
   xmlns:cc="http://creativecommons.org/ns#"
   xmlns:rdf="http://www.w3.org/1999/02/22-rdf-syntax-ns#"
   xmlns:svg="http://www.w3.org/2000/svg"
   xmlns="http://www.w3.org/2000/svg"
   xmlns:sodipodi="http://sodipodi.sourceforge.net/DTD/sodipodi-0.dtd"
   xmlns:inkscape="http://www.inkscape.org/namespaces/inkscape"
   xml:space="preserve"
   width="141.84999"
   height="140.77126"
   version="1.1"
   style="fill-rule:evenodd"
   viewBox="0 0 1576.111 1564.125"
   id="svg2"
   inkscape:version="0.91 r13725"
   sodipodi:docname="herculus-transparent.svg"><metadata
     id="metadata29"><rdf:RDF><cc:Work
         rdf:about=""><dc:format>image/svg+xml</dc:format><dc:type
           rdf:resource="http://purl.org/dc/dcmitype/StillImage" /><dc:title></dc:title></cc:Work></rdf:RDF></metadata><sodipodi:namedview
     pagecolor="#ffffff"
     bordercolor="#666666"
     borderopacity="1"
     objecttolerance="10"
     gridtolerance="10"
     guidetolerance="10"
     inkscape:pageopacity="0"
     inkscape:pageshadow="2"
     inkscape:window-width="1916"
     inkscape:window-height="1041"
     id="namedview27"
     showgrid="false"
     fit-margin-top="5"
     fit-margin-left="5"
     fit-margin-right="5"
     fit-margin-bottom="5"
     inkscape:zoom="5.33"
     inkscape:cx="36.008351"
     inkscape:cy="70.669045"
     inkscape:window-x="0"
     inkscape:window-y="18"
     inkscape:window-maximized="0"
     inkscape:current-layer="svg2"
     inkscape:snap-global="false"
     showguides="false" /><defs
     id="defs4"><style
       type="text/css"
       id="style6">
    .fil0 {fill:#0D353D}
    .fil4 {fill:#BEFE00}
    .fil3 {fill:yellow}
    .fil1 {fill:#FEFEFE;fill-rule:nonzero}
    .fil2 {fill:yellow;fill-rule:nonzero}
   </style></defs><g
     id="Layer_x0020_1"
     transform="translate(-2319.4426,-2188.1876)"><metadata
       id="CorelCorpID_0Corel-Layer" /><g
       id="g13"
       transform="translate(554.27702,266.87412)"><path
         style="fill:#e9ff00;fill-opacity:1"
         inkscape:connector-curvature="0"
         id="path21"
         d="m 3146.7211,2281.883 2,3 c 2,3 4,6 6,8 l 3,4 c 2,3 4,6 6,9 l 2,4 c 2,3 4,6 6,9 l 2,3 c 2,4 4,7 7,11 l 1,3 c 3,3 5,7 7,11 l 1,2 c 2,4 4,7 6,11 l 2,2 c 2,4 4,8 6,12 l 1,2 c 2,4 4,8 6,12 l 0,1 c 5,9 9,19 13,28 l 1,1 c 20,47 36,98 47,150 -44,38 -159,107 -231,139 57,-80 119,-281 106,-425 z"
         class="fil3" /><path
         style="fill:#ecd916;fill-opacity:1"
         inkscape:connector-curvature="0"
         id="path23"
         d="m 3282.7211,2645.883 c 2,21 3,43 3,65 0,341 -243,648 -587,717 l -1,1 c -4,0 -9,1 -14,1 -54,0 -98,-44 -98,-98 l 0,-1 c 0,-2 0,-4 0,-6 l 0,0 c 0,-149 0,-299 0,-449 259,-6 499,-91 697,-230 z m -876,782 0,0 0,0 c 5,1 10,2 16,2 51,0 94,-41 97,-92 0,-154 0,-308 0,-462 -259,-6 -499,-91 -697,-230 -1,21 -2,43 -2,65 0,343 243,648 586,717 z"
         class="fil4" /><path
         style="fill:#e9ff00;fill-opacity:1"
         inkscape:connector-curvature="0"
         id="path25"
         d="m 2782.7211,2784.883 c -73,20 -151,22 -230,22 -208,0 -558,-84 -719,-239 l 0,0 c 97,-495 700,-778 1150,-450 l 0,0 0,0 c -45,-5 -144,-5 -211,10 l 11,-56 c -371,-91 -742,170 -742,396 0,40 31,73 69,73 18,0 35,-8 47,-20 l 0,0 0,0 c 27,-27 50,-66 76,-97 58,-68 141,-116 233,-134 l -19,-63 c -14,-3 -27,-14 -32,-30 -7,-23 6,-47 29,-54 23,-7 48,6 55,29 4,16 0,32 -11,43 l 21,69 c 14,-2 28,-2 43,-2 15,0 29,0 43,2 l 21,-69 c -11,-11 -15,-27 -11,-43 7,-23 32,-36 55,-29 23,7 36,31 29,54 -5,16 -18,27 -32,30 l -19,63 c 101,20 188,76 250,155 84,105 66,294 -106,340 z m -69,-326 c 32,0 57,26 57,58 0,32 -25,58 -57,58 -32,0 -58,-26 -58,-58 0,-32 26,-58 58,-58 z m -322,0 c 32,0 58,26 58,58 0,32 -26,58 -58,58 -32,0 -57,-26 -57,-58 0,-32 25,-58 57,-58 z"
         class="fil3" /></g></g></svg>